<?xml version="1.0" encoding="utf-8"?>
<svg xmlns="http://www.w3.org/2000/svg" style="margin: auto; background: none; display: block; shape-rendering: auto;" width="280" height="250" preserveAspectRatio="xMidYMid">
<style type="text/css">
  text {
    text-anchor: middle; font-size: 40px; opacity: 0;
  }
</style>
<g style="transform-origin: 140px 125px; transform: scale(0.5);">
<g transform="translate(140,125)">
  <g transform="translate(0,0)"><g class="path" style="transform: scale(0.91); transform-origin: -57.97px -4.5878px; animation: 0.568182s linear -0.25s infinite normal forwards running breath-8da813ff-973b-47bc-8a60-a112999f04c7;"><path d="M32.38-49.06L32.38 0L16.88 0L16.88-49.06L1.56-49.06L1.56-56.25L47.70-56.25L47.70-49.06L32.38-49.06" fill="#b838b1" stroke="none" stroke-width="none" transform="translate(-82.60000610351562,23.537202860514316)" style="fill: rgb(184, 56, 177);"></path></g><g class="path" style="transform: scale(0.91); transform-origin: -4.11725px 0.7822px; animation: 0.568182s linear -0.125s infinite normal forwards running breath-8da813ff-973b-47bc-8a60-a112999f04c7;"><path d="M105.59-26.91L105.59-26.91L105.59-26.17L105.59-26.17Q105.51-22.89 104.90-19.38L104.90-19.38L104.90-19.38Q104.30-15.86 103.20-12.34L103.20-12.34L103.20-12.34Q102.11-8.83 100.59-5.39L100.59-5.39L100.59-5.39Q99.06-1.95 97.17 1.19L97.17 1.19L97.17 1.19Q95.27 4.34 93.09 7.09L93.09 7.09L93.09 7.09Q90.90 9.84 88.48 11.95L88.48 11.95L82.66 8.59L82.66 8.59Q84.02 6.29 85.14 3.57L85.14 3.57L85.14 3.57Q86.25 0.86 87.15-2.11L87.15-2.11L87.15-2.11Q88.05-5.08 88.69-8.20L88.69-8.20L88.69-8.20Q89.34-11.33 89.77-14.41L89.77-14.41L89.77-14.41Q90.20-17.50 90.41-20.49L90.41-20.49L90.41-20.49Q90.63-23.48 90.63-26.17L90.63-26.17L90.63-26.17Q90.63-28.28 90.61-30.96L90.61-30.96L90.61-30.96Q90.59-33.63 90.29-36.41L90.29-36.41L90.29-36.41Q90-39.18 89.34-41.82L89.34-41.82L89.34-41.82Q88.67-44.45 87.36-46.52L87.36-46.52L87.36-46.52Q86.05-48.59 84.00-49.84L84.00-49.84L84.00-49.84Q81.95-51.09 78.91-51.09L78.91-51.09L78.91-51.09Q76.21-51.09 74.28-50.18L74.28-50.18L74.28-50.18Q72.34-49.26 71.00-47.71L71.00-47.71L71.00-47.71Q69.65-46.17 68.85-44.14L68.85-44.14L68.85-44.14Q68.05-42.11 67.60-39.86L67.60-39.86L67.60-39.86Q67.15-37.62 67.01-35.33L67.01-35.33L67.01-35.33Q66.88-33.05 66.88-31.02L66.88-31.02L66.88-20.12L83.71-20.12L83.71-13.67L66.88-13.67L66.88 0L51.37 0L51.37-28.59L51.37-28.59Q51.37-34.73 53.32-40L53.32-40L53.32-40Q55.27-45.27 58.85-49.16L58.85-49.16L58.85-49.16Q62.42-53.05 67.44-55.25L67.44-55.25L67.44-55.25Q72.46-57.46 78.63-57.46L78.63-57.46L78.63-57.46Q82.81-57.46 86.46-56.27L86.46-56.27L86.46-56.27Q90.12-55.08 93.13-52.99L93.13-52.99L93.13-52.99Q96.13-50.90 98.50-48.03L98.50-48.03L98.50-48.03Q100.86-45.16 102.44-41.76L102.44-41.76L102.44-41.76Q104.02-38.36 104.84-34.57L104.84-34.57L104.84-34.57Q105.66-30.78 105.59-26.91" fill="#b838b1" stroke="none" stroke-width="none" transform="translate(-82.60000610351562,23.537202860514316)" style="fill: rgb(200, 49, 233);"></path></g><g class="path" style="transform: scale(0.91); transform-origin: 57.01px -4.6878px; animation: 0.568182s linear 0s infinite normal forwards running breath-8da813ff-973b-47bc-8a60-a112999f04c7;"><path d="M166.76-42.30L166.76-42.30L160.08-39.49L160.08-39.49Q159.30-42.03 157.99-44.14L157.99-44.14L157.99-44.14Q156.68-46.25 154.86-47.75L154.86-47.75L154.86-47.75Q153.05-49.26 150.74-50.10L150.74-50.10L150.74-50.10Q148.44-50.94 145.70-50.94L145.70-50.94L145.70-50.94Q142.77-50.94 140.33-49.96L140.33-49.96L140.33-49.96Q137.89-48.98 135.96-47.32L135.96-47.32L135.96-47.32Q134.02-45.66 132.58-43.44L132.58-43.44L132.58-43.44Q131.13-41.21 130.18-38.69L130.18-38.69L130.18-38.69Q129.22-36.17 128.73-33.48L128.73-33.48L128.73-33.48Q128.24-30.78 128.24-28.20L128.24-28.20L128.24-28.20Q128.24-24.10 129.20-20.04L129.20-20.04L129.20-20.04Q130.16-15.98 132.25-12.73L132.25-12.73L132.25-12.73Q134.34-9.49 137.66-7.48L137.66-7.48L137.66-7.48Q140.98-5.47 145.70-5.47L145.70-5.47L145.70-5.47Q148.28-5.47 149.73-6.62L149.73-6.62L149.73-6.62Q151.17-7.77 151.17-10.66L151.17-10.66L151.17-27.93L166.68-27.93L166.68 0L162.19 0L159.45-4.41L159.45-4.41Q155.70-1.56 151.19-0.21L151.19-0.21L151.19-0.21Q146.68 1.13 141.99 1.13L141.99 1.13L141.99 1.13Q137.85 1.13 134.04 0.12L134.04 0.12L134.04 0.12Q130.23-0.90 126.95-2.77L126.95-2.77L126.95-2.77Q123.67-4.65 121.00-7.30L121.00-7.30L121.00-7.30Q118.32-9.96 116.43-13.20L116.43-13.20L116.43-13.20Q114.53-16.45 113.50-20.25L113.50-20.25L113.50-20.25Q112.46-24.06 112.46-28.20L112.46-28.20L112.46-28.20Q112.46-32.34 113.50-36.15L113.50-36.15L113.50-36.15Q114.53-39.96 116.43-43.22L116.43-43.22L116.43-43.22Q118.32-46.48 121.00-49.14L121.00-49.14L121.00-49.14Q123.67-51.80 126.95-53.67L126.95-53.67L126.95-53.67Q130.23-55.55 134.04-56.56L134.04-56.56L134.04-56.56Q137.85-57.58 141.99-57.58L141.99-57.58L141.99-57.58Q145.98-57.58 149.79-56.64L149.79-56.64L149.79-56.64Q153.59-55.70 156.88-53.81L156.88-53.81L156.88-53.81Q160.16-51.91 162.71-49.04L162.71-49.04L162.71-49.04Q165.27-46.17 166.76-42.30" fill="#b838b1" stroke="none" stroke-width="none" transform="translate(-82.60000610351562,23.537202860514316)" style="fill: rgb(200, 30, 215);"></path></g></g>
</g>
</g>
<style id="breath-8da813ff-973b-47bc-8a60-a112999f04c7" data-anikit="">@keyframes breath-8da813ff-973b-47bc-8a60-a112999f04c7
{
  0% {
    animation-timing-function: cubic-bezier(0.9647,0.2413,-0.0705,0.7911);
    transform: scale(0.9099999999999999);
  }
  51% {
    animation-timing-function: cubic-bezier(0.9226,0.2631,-0.0308,0.7628);
    transform: scale(1.02994);
  }
  100% {
    transform: scale(0.9099999999999999);
  }
}</style></svg>